<svg width="31" height="31" viewBox="0 0 31 31" fill="none" xmlns="http://www.w3.org/2000/svg">
<g clip-path="url(#clip0_681_22)">
<path d="M30.443 15.8087C30.443 7.5235 23.7281 0.808655 15.443 0.808655C7.15784 0.808655 0.442993 7.5235 0.442993 15.8087C0.442993 24.0938 7.15784 30.8087 15.443 30.8087C15.5309 30.8087 15.6188 30.8087 15.7067 30.8028V19.1309H12.484V15.3751H15.7067V12.6094C15.7067 9.40436 17.6637 7.65826 20.5231 7.65826C21.8942 7.65826 23.0719 7.75787 23.4117 7.80475V11.1563H21.443C19.8903 11.1563 19.5856 11.8946 19.5856 12.9786V15.3692H23.3063L22.8199 19.1251H19.5856V30.2286C25.8551 28.4297 30.443 22.6583 30.443 15.8087Z" fill="#1DBFBF"/>
</g>
<defs>
<clipPath id="clip0_681_22">
<rect width="30" height="30" fill="white" transform="translate(0.442993 0.808655)"/>
</clipPath>
</defs>
</svg>
