<svg width="31" height="31" viewBox="0 0 31 31" fill="none" xmlns="http://www.w3.org/2000/svg">
<g clip-path="url(#clip0_681_24)">
<path d="M15.443 0.808655C7.15999 0.808655 0.442993 7.52565 0.442993 15.8087C0.442993 24.0917 7.15999 30.8087 15.443 30.8087C23.726 30.8087 30.443 24.0917 30.443 15.8087C30.443 7.52565 23.726 0.808655 15.443 0.808655ZM11.0842 23.4844H7.43098V12.4938H11.0842V23.4844ZM9.25769 10.993H9.23389C8.008 10.993 7.21515 10.1491 7.21515 9.09441C7.21515 8.01591 8.03226 7.19537 9.28195 7.19537C10.5316 7.19537 11.3007 8.01591 11.3245 9.09441C11.3245 10.1491 10.5316 10.993 9.25769 10.993ZM24.2568 23.4844H20.604V17.6047C20.604 16.127 20.0751 15.1193 18.7533 15.1193C17.7442 15.1193 17.1431 15.799 16.879 16.4552C16.7824 16.6901 16.7588 17.0183 16.7588 17.3467V23.4844H13.1059C13.1059 23.4844 13.1537 13.5249 13.1059 12.4938H16.7588V14.0499C17.2443 13.301 18.1129 12.2358 20.0511 12.2358C22.4546 12.2358 24.2568 13.8066 24.2568 17.1824V23.4844Z" fill="#1DBFBF"/>
</g>
<defs>
<clipPath id="clip0_681_24">
<rect width="30" height="30" fill="white" transform="translate(0.442993 0.808655)"/>
</clipPath>
</defs>
</svg>
